<?xml version="1.0" encoding="UTF-8" standalone="no"?>
<!-- Generator: Adobe Illustrator 16.0.0, SVG Export Plug-In . SVG Version: 6.00 Build 0)  -->

<svg
   xmlns:dc="http://purl.org/dc/elements/1.1/"
   xmlns:cc="http://creativecommons.org/ns#"
   xmlns:rdf="http://www.w3.org/1999/02/22-rdf-syntax-ns#"
   xmlns:svg="http://www.w3.org/2000/svg"
   xmlns="http://www.w3.org/2000/svg"
   xmlns:sodipodi="http://sodipodi.sourceforge.net/DTD/sodipodi-0.dtd"
   xmlns:inkscape="http://www.inkscape.org/namespaces/inkscape"
   version="1.1"
   id="Capa_1"
   x="0px"
   y="0px"
   width="512px"
   height="512px"
   viewBox="0 0 512 512"
   style="enable-background:new 0 0 512 512;"
   xml:space="preserve"
   inkscape:version="0.91 r13725"
   sodipodi:docname="number5.svg"><metadata
     id="metadata45"><rdf:RDF><cc:Work
         rdf:about=""><dc:format>image/svg+xml</dc:format><dc:type
           rdf:resource="http://purl.org/dc/dcmitype/StillImage" /></cc:Work></rdf:RDF></metadata><defs
     id="defs43" /><sodipodi:namedview
     pagecolor="#ffffff"
     bordercolor="#666666"
     borderopacity="1"
     objecttolerance="10"
     gridtolerance="10"
     guidetolerance="10"
     inkscape:pageopacity="0"
     inkscape:pageshadow="2"
     inkscape:window-width="640"
     inkscape:window-height="480"
     id="namedview41"
     showgrid="false"
     inkscape:zoom="0.4609375"
     inkscape:cx="256"
     inkscape:cy="256"
     inkscape:window-x="0"
     inkscape:window-y="0"
     inkscape:window-maximized="0"
     inkscape:current-layer="Capa_1" /><g
     id="g3"
     style="fill:#ffffff"><path
       d="M256,0C114.609,0,0,114.609,0,256c0,141.391,114.609,256,256,256c141.391,0,256-114.609,256-256   C512,114.609,397.391,0,256,0z M256,472c-119.297,0-216-96.703-216-216S136.703,40,256,40s216,96.703,216,216S375.297,472,256,472z   "
       id="path5"
       style="fill:#ffffff" /><g
       id="g7"
       style="fill:#ffffff"><path
         d="M183.219,263.844L198.453,128h124.062v29.031H221.328L214.5,227.14l1.219,0.484c5.844-5.641,12.719-9.656,20.656-12.031    c7.875-2.375,15.719-3.594,23.469-3.594c10.969,0,21.109,2.234,30.5,6.719c9.266,4.406,17.359,10.531,24.078,18.281    c6.734,7.75,12.078,16.891,15.906,27.5C334.125,275.03,336,286.28,336,298.232c0,11.017-1.656,21.578-5.031,31.984    c-3.531,10.25-8.656,19.328-15.391,27.5c-6.734,8-15.297,14.328-25.656,19.078c-10.406,4.75-22.578,7.203-36.484,7.203    c-19.531,0-36.375-6.188-50.531-18.281c-14.219-12.234-23.188-30.172-26.906-53.688h32.516c2.922,13.453,8.453,23.969,16.641,31.5    c8.172,7.531,17.719,11.453,28.656,11.453c7.5,0,14.329-1.5,20.422-4.5c6.219-2.969,11.453-6.984,15.906-12.017    c4.328-5.155,7.828-11.219,10.155-18.422c2.453-7.078,3.595-14.733,3.595-22.766c0-8.298-1.392-15.859-4.345-22.767    c-3.062-6.797-6.905-12.733-11.858-17.641c-4.922-4.891-10.625-8.75-17.031-11.625C264.234,242.469,257.688,241,251,241    c-7.469,0-14.719,1.844-21.688,5.375c-6.938,3.609-12.812,9.375-17.625,17.469H183.219z"
         id="path9"
         style="fill:#ffffff" /></g></g><g
     id="g11" /><g
     id="g13" /><g
     id="g15" /><g
     id="g17" /><g
     id="g19" /><g
     id="g21" /><g
     id="g23" /><g
     id="g25" /><g
     id="g27" /><g
     id="g29" /><g
     id="g31" /><g
     id="g33" /><g
     id="g35" /><g
     id="g37" /><g
     id="g39" /></svg>