<?xml version="1.0" encoding="UTF-8" standalone="no"?>
<!-- Generator: Adobe Illustrator 16.0.0, SVG Export Plug-In . SVG Version: 6.00 Build 0)  -->

<svg
   xmlns:dc="http://purl.org/dc/elements/1.1/"
   xmlns:cc="http://creativecommons.org/ns#"
   xmlns:rdf="http://www.w3.org/1999/02/22-rdf-syntax-ns#"
   xmlns:svg="http://www.w3.org/2000/svg"
   xmlns="http://www.w3.org/2000/svg"
   xmlns:sodipodi="http://sodipodi.sourceforge.net/DTD/sodipodi-0.dtd"
   xmlns:inkscape="http://www.inkscape.org/namespaces/inkscape"
   version="1.1"
   id="Capa_1"
   x="0px"
   y="0px"
   width="512px"
   height="512px"
   viewBox="0 0 512 512"
   style="enable-background:new 0 0 512 512;"
   xml:space="preserve"
   inkscape:version="0.91 r13725"
   sodipodi:docname="number6.svg"><metadata
     id="metadata45"><rdf:RDF><cc:Work
         rdf:about=""><dc:format>image/svg+xml</dc:format><dc:type
           rdf:resource="http://purl.org/dc/dcmitype/StillImage" /></cc:Work></rdf:RDF></metadata><defs
     id="defs43" /><sodipodi:namedview
     pagecolor="#ffffff"
     bordercolor="#666666"
     borderopacity="1"
     objecttolerance="10"
     gridtolerance="10"
     guidetolerance="10"
     inkscape:pageopacity="0"
     inkscape:pageshadow="2"
     inkscape:window-width="640"
     inkscape:window-height="480"
     id="namedview41"
     showgrid="false"
     inkscape:zoom="0.4609375"
     inkscape:cx="256"
     inkscape:cy="256"
     inkscape:window-x="0"
     inkscape:window-y="0"
     inkscape:window-maximized="0"
     inkscape:current-layer="Capa_1" /><g
     id="g3"
     style="fill:#ffffff"><path
       d="M256,0C114.609,0,0,114.609,0,256c0,141.391,114.609,256,256,256c141.391,0,256-114.609,256-256   C512,114.609,397.391,0,256,0z M256,472c-119.297,0-216-96.703-216-216S136.703,40,256,40s216,96.703,216,216S375.297,472,256,472z   "
       id="path5"
       style="fill:#ffffff" /><g
       id="g7"
       style="fill:#ffffff"><path
         d="M302.922,193.656c0-4.406-1-8.797-3.297-13.188c-2.156-4.438-5.141-8.375-8.688-11.938    c-3.547-3.531-7.938-6.375-13.047-8.562c-5.109-2.219-10.517-3.344-16.281-3.344c-10.281,0-18.517,2.516-24.859,7.5    c-6.312,5-11.375,11.531-15.094,19.625c-3.688,8.094-6.344,17.125-7.875,27.125c-1.516,9.969-2.375,19.781-2.688,29.5h1.266    c14.312-14.656,29.797-22.031,46.579-22.031c10.688,0,20.766,2.047,30.328,6.156c9.438,4.125,17.625,9.875,24.452,17.234    c6.97,7.281,12.359,16.141,16.375,26.391c3.97,10.297,5.906,21.422,5.906,33.422c0,11.22-1.844,21.906-5.391,31.892    c-3.531,10-8.656,18.625-15.25,26.094c-6.595,7.5-14.595,13.469-24.142,17.938c-9.422,4.328-20.094,6.531-31.938,6.531    c-12.656,0-24.141-2.562-34.469-7.938c-10.25-5.267-19.016-12.812-26.156-22.609c-7.172-9.922-12.703-21.891-16.688-35.953    c-4-14.047-5.969-30.062-5.969-48.016c0-25.609,1.969-47.392,5.969-65.484c4-18.031,9.719-32.641,17.156-43.844    c7.469-11.141,16.406-19.281,26.875-24.422c10.5-5.125,22.156-7.734,35.155-7.734c10.188,0,19.688,1.844,28.359,5.5    c8.688,3.719,16.156,8.609,22.312,14.766c6.141,6.203,11.203,13.234,14.953,21.141c3.594,7.953,5.733,16.062,6.358,24.25    L302.922,193.656L302.922,193.656z M259.141,355.453c14.828,0,25.906-5.172,33-15.219c7.234-10.219,10.781-22.734,10.781-37.734    c0-7.297-0.906-14.281-2.641-20.938c-1.828-6.578-4.625-12.453-8.359-17.578c-3.609-5.142-8.219-9.25-13.625-12.359    C272.906,248.5,266.672,247,259.5,247c-8.797,0-16.281,1.75-22.281,5.25c-6.094,3.531-11,8.016-14.75,13.484    c-3.656,5.391-6.344,11.358-7.844,17.797c-1.469,6.484-2.266,12.766-2.266,18.969c0,15.953,4.234,28.719,12.797,38.438    C233.719,350.516,245,355.453,259.141,355.453z"
         id="path9"
         style="fill:#ffffff" /></g></g><g
     id="g11" /><g
     id="g13" /><g
     id="g15" /><g
     id="g17" /><g
     id="g19" /><g
     id="g21" /><g
     id="g23" /><g
     id="g25" /><g
     id="g27" /><g
     id="g29" /><g
     id="g31" /><g
     id="g33" /><g
     id="g35" /><g
     id="g37" /><g
     id="g39" /></svg>